<svg width="31" height="29" viewBox="0 0 31 29" xmlns="http://www.w3.org/2000/svg">
    <path d="M20.89 19.48a1.64 1.64 0 1 1 .1.08h-.11l.01-.08zm.42 4a10.06 10.06 0 0 1-11.43 0 .64.64 0 0 1 .09-.88.62.62 0 0 1 .79 0 8.84 8.84 0 0 0 9.64 0 .65.65 0 0 1 .91.93v-.05zM7.88 17.12a2.32 2.32 0 1 1 4.64 0 2.32 2.32 0 0 1-4.64 0M31 14.77a3.37 3.37 0 0 0-5.71-2.32 16.45 16.45 0 0 0-8.9-2.84l1.5-7.22 4.95 1.05a2.3 2.3 0 1 0 .3-1.42L17.48.89a.72.72 0 0 0-.86.55l-1.7 8a16.59 16.59 0 0 0-9 2.84A3.375 3.375 0 1 0 1.3 17.2c.266.255.573.461.91.61a8.68 8.68 0 0 0 0 1c0 5.17 6 9.39 13.47 9.39 7.47 0 13.48-4.21 13.48-9.39a8.68 8.68 0 0 0 0-1 3.35 3.35 0 0 0 1.86-3.07" fill="#060000" fill-rule="nonzero"/>
</svg>
