<svg width="32" height="24" viewBox="0 0 32 24" xmlns="http://www.w3.org/2000/svg">
    <path d="M21 16.4a3.08 3.08 0 0 1 0-6.13 2.89 2.89 0 0 1 2.75 3.07A2.92 2.92 0 0 1 21 16.4m-10.19 0a3.08 3.08 0 0 1 0-6.13 2.89 2.89 0 0 1 2.76 3.07 2.92 2.92 0 0 1-2.76 3.06M26.55 2.51a25.64 25.64 0 0 0-6.33-2 18 18 0 0 0-.81 1.65 23.6 23.6 0 0 0-7 0A18 18 0 0 0 11.6.51a26.07 26.07 0 0 0-6.33 2A25.58 25.58 0 0 0 .73 19.9a25.62 25.62 0 0 0 7.76 3.9 20.59 20.59 0 0 0 1.66-2.68 16.57 16.57 0 0 1-2.62-1.25l.64-.48a18.29 18.29 0 0 0 15.51 0c.21.17.42.33.64.48a16.57 16.57 0 0 1-2.62 1.25 19 19 0 0 0 1.66 2.68 25.4 25.4 0 0 0 7.76-3.9 25.55 25.55 0 0 0-4.55-17.39" fill="#060000" fill-rule="nonzero"/>
</svg>
