<svg width="24" height="27" viewBox="0 0 24 27" xmlns="http://www.w3.org/2000/svg">
    <path d="M8.52 21c-.2 0-.37 0-.4-.18-.03-.18.12-.27.31-.31.19-.04.37.05.4.19.03.14-.12.27-.31.3m-1.31.16c-.2 0-.36-.1-.36-.24 0-.14.15-.25.35-.25.2 0 .36.1.36.24 0 .14-.15.25-.35.25m-1-.35c0 .13-.22.19-.41.13-.19-.06-.31-.2-.27-.34.04-.14.22-.19.41-.13.19.06.31.21.27.34M5 20.3c-.09.11-.29.08-.43-.06s-.19-.32-.09-.42c.1-.1.28-.07.43.06.15.13.18.33.09.42m-.9-.92c-.1.07-.27 0-.37-.14-.1-.14-.1-.33 0-.4s.27 0 .37.14c.1.14.11.33 0 .4m-.65-1a.26.26 0 0 1-.34-.08c-.11-.12-.13-.27-.05-.35.08-.08.23 0 .34.08.11.08.13.27.05.35m-.68-.75c0 .08-.16.1-.28.05-.12-.05-.19-.17-.15-.25.04-.08.17-.11.29-.05.12.06.19.16.14.25m14.43 7.71v-4.55a3.93 3.93 0 0 0-1.13-3.07c3.7-.41 7.58-1.82 7.58-8.19a6.42 6.42 0 0 0-1.71-4.45 6 6 0 0 0-.16-4.39s-1.39-.45-4.56 1.7a15.69 15.69 0 0 0-8.31 0C5.74.24 4.35.69 4.35.69a5.87 5.87 0 0 0-.16 4.39 6.37 6.37 0 0 0-1.71 4.45c0 6.36 3.87 7.78 7.56 8.2A3.51 3.51 0 0 0 9 20a3.53 3.53 0 0 1-4.83-1.38 3.48 3.48 0 0 0-2.54-1.71s-1.62 0-.11 1a4.42 4.42 0 0 1 1.84 2.42s1 3 5.59 2v3.09a.8.8 0 0 1-.44.74c2.976.86 6.134.86 9.11 0a.81.81 0 0 1-.44-.75" fill="#060000" fill-rule="nonzero"/>
</svg>
